<?xml version="1.0" encoding="UTF-8" standalone="no"?>
<svg
   xmlns:dc="http://purl.org/dc/elements/1.1/"
   xmlns:cc="http://creativecommons.org/ns#"
   xmlns:rdf="http://www.w3.org/1999/02/22-rdf-syntax-ns#"
   xmlns:svg="http://www.w3.org/2000/svg"
   xmlns="http://www.w3.org/2000/svg"
   xmlns:sodipodi="http://sodipodi.sourceforge.net/DTD/sodipodi-0.dtd"
   xmlns:inkscape="http://www.inkscape.org/namespaces/inkscape"
   viewBox="0 0 96 96"
   id="Icons_Bank"
   overflow="hidden"
   version="1.1"
   sodipodi:docname="bank.svg"
   inkscape:export-filename="C:\Users\Lidia\Documents\Personal\Funpoly\src\wwwroot\image\bank.png"
   inkscape:export-xdpi="512"
   inkscape:export-ydpi="512"
   inkscape:version="1.0.2-2 (e86c870879, 2021-01-15)">
  <metadata
     id="metadata52">
    <rdf:RDF>
      <cc:Work
         rdf:about="">
        <dc:format>image/svg+xml</dc:format>
        <dc:type
           rdf:resource="http://purl.org/dc/dcmitype/StillImage" />
      </cc:Work>
    </rdf:RDF>
  </metadata>
  <defs
     id="defs50" />
  <sodipodi:namedview
     pagecolor="#ffffff"
     bordercolor="#666666"
     borderopacity="1"
     objecttolerance="10"
     gridtolerance="10"
     guidetolerance="10"
     inkscape:pageopacity="0"
     inkscape:pageshadow="2"
     inkscape:window-width="1920"
     inkscape:window-height="1017"
     id="namedview48"
     showgrid="false"
     inkscape:zoom="8.8541667"
     inkscape:cx="48"
     inkscape:cy="48"
     inkscape:window-x="1912"
     inkscape:window-y="-8"
     inkscape:window-maximized="1"
     inkscape:current-layer="Icons_Bank" />
  <path
     d="M79 75 79 73 75 73 75 39 79 39 79 37 82 37 82 31 79 31 48 12 17 31 14 31 14 37 17 37 17 39 21 39 21 73 17 73 17 75 10 80 10 84 48 84 86 84 86 80 79 75ZM33 73 27 73 27 39 33 39 33 73ZM45 73 39 73 39 39 45 39 45 73ZM47 29C44.8 29 43 27.2 43 25 43 22.8 44.8 21 47 21 49.2 21 51 22.8 51 25 51 27.2 49.2 29 47 29ZM57 73 51 73 51 39 57 39 57 73ZM69 73 63 73 63 39 69 39 69 73Z"
     id="path45" />
</svg>
