<?xml version="1.0" encoding="UTF-8" standalone="no"?>
<svg
   xmlns:dc="http://purl.org/dc/elements/1.1/"
   xmlns:cc="http://creativecommons.org/ns#"
   xmlns:rdf="http://www.w3.org/1999/02/22-rdf-syntax-ns#"
   xmlns:svg="http://www.w3.org/2000/svg"
   xmlns="http://www.w3.org/2000/svg"
   xmlns:sodipodi="http://sodipodi.sourceforge.net/DTD/sodipodi-0.dtd"
   xmlns:inkscape="http://www.inkscape.org/namespaces/inkscape"
   viewBox="0 0 96 96"
   id="Icons_SailBoatLikePirate"
   overflow="hidden"
   version="1.1"
   sodipodi:docname="boat.svg"
   inkscape:export-filename="C:\Users\Lidia\Documents\Personal\Funpoly\src\wwwroot\image\boat.png"
   inkscape:export-xdpi="511.79999"
   inkscape:export-ydpi="511.79999"
   inkscape:version="1.0.2-2 (e86c870879, 2021-01-15)">
  <metadata
     id="metadata44">
    <rdf:RDF>
      <cc:Work
         rdf:about="">
        <dc:format>image/svg+xml</dc:format>
        <dc:type
           rdf:resource="http://purl.org/dc/dcmitype/StillImage" />
      </cc:Work>
    </rdf:RDF>
  </metadata>
  <defs
     id="defs42" />
  <sodipodi:namedview
     pagecolor="#ffffff"
     bordercolor="#666666"
     borderopacity="1"
     objecttolerance="10"
     gridtolerance="10"
     guidetolerance="10"
     inkscape:pageopacity="0"
     inkscape:pageshadow="2"
     inkscape:window-width="776"
     inkscape:window-height="480"
     id="namedview40"
     showgrid="false"
     inkscape:zoom="6.2608413"
     inkscape:cx="29.334075"
     inkscape:cy="59.347785"
     inkscape:window-x="1920"
     inkscape:window-y="0"
     inkscape:window-maximized="0"
     inkscape:current-layer="Icons_SailBoatLikePirate" />
  <path
     d="M84.914 66 84.914 63 87 63 87 59 61 59 61 63 62.91 63 62.91 66 61 66 58 69 48 69 48 59 52.167 59C57.4104 59.0088 61.6681 54.7653 61.6769 49.5219 61.683 45.9086 59.6374 42.605 56.4 41L60 41 60 37 48 37 48 33 51 33C54.3137 32.9986 56.9988 30.3111 56.9974 26.9974 56.9965 24.9873 55.9891 23.1111 54.314 22L57 22 57 18 48 18 48 12 44 12 44 18 34 18 34 22 38.314 22C41.0746 23.827 41.8313 27.546 40.0043 30.3066 39.2846 31.394 38.2298 32.2171 37 32.651L37 33 44 33 44 37 30 37 30 41 34.224 41C38.92 43.3264 40.8409 49.0191 38.5145 53.7151 37.39 55.9851 35.4044 57.7112 33 58.509L33 59 44 59 44 69 34 69 31 66 25.91 66 25.91 63 28 63 28 59 17 59 17 52 20 52C23.3137 51.9986 25.9988 49.3111 25.9974 45.9974 25.9965 43.9873 24.9891 42.1111 23.314 41L26 41 26 37 17 37 17 31 13 31 13 37 3 37 3 41 7.318 41C10.0781 42.8278 10.8338 46.547 9.006 49.307 8.28575 50.3946 7.23036 51.2176 6 51.651L6 52 13 52 13 59 2 59 2 63 3.91 63 3.91 66 2 66 2 70 9 70 23 84 69.06 84 83 70.056 94 70.056 94 66ZM7.914 66 7.914 63 13 63 13 66ZM17 66 17 63 21.91 63 21.91 66ZM72 66 66.91 66 66.91 63 72 63ZM80.91 66 76 66 76 63 80.91 63Z"
     id="path37" />
</svg>
