<?xml version="1.0" encoding="UTF-8" standalone="no"?>
<svg
   xmlns:dc="http://purl.org/dc/elements/1.1/"
   xmlns:cc="http://creativecommons.org/ns#"
   xmlns:rdf="http://www.w3.org/1999/02/22-rdf-syntax-ns#"
   xmlns:svg="http://www.w3.org/2000/svg"
   xmlns="http://www.w3.org/2000/svg"
   xmlns:sodipodi="http://sodipodi.sourceforge.net/DTD/sodipodi-0.dtd"
   xmlns:inkscape="http://www.inkscape.org/namespaces/inkscape"
   viewBox="0 0 96 96"
   id="Icons_Elephant"
   overflow="hidden"
   version="1.1"
   sodipodi:docname="elephant.svg"
   inkscape:export-filename="C:\Users\Lidia\Documents\Personal\Funpoly\src\wwwroot\image\elephant.png"
   inkscape:export-xdpi="511.79999"
   inkscape:export-ydpi="511.79999"
   inkscape:version="1.0.2-2 (e86c870879, 2021-01-15)">
  <metadata
     id="metadata66">
    <rdf:RDF>
      <cc:Work
         rdf:about="">
        <dc:format>image/svg+xml</dc:format>
        <dc:type
           rdf:resource="http://purl.org/dc/dcmitype/StillImage" />
      </cc:Work>
    </rdf:RDF>
  </metadata>
  <defs
     id="defs64" />
  <sodipodi:namedview
     pagecolor="#ffffff"
     bordercolor="#666666"
     borderopacity="1"
     objecttolerance="10"
     gridtolerance="10"
     guidetolerance="10"
     inkscape:pageopacity="0"
     inkscape:pageshadow="2"
     inkscape:window-width="1920"
     inkscape:window-height="1017"
     id="namedview62"
     showgrid="false"
     inkscape:zoom="8.8541667"
     inkscape:cx="48"
     inkscape:cy="48"
     inkscape:window-x="1912"
     inkscape:window-y="-8"
     inkscape:window-maximized="1"
     inkscape:current-layer="Icons_Elephant" />
  <path
     d="M24.93 61 24.93 74C24.93 76.2091 26.7209 78 28.93 78 31.1391 78 32.93 76.2091 32.93 74L32.93 61.73C30.2501 61.6646 27.5775 61.4207 24.93 61Z"
     id="path57" />
  <path
     d="M92.17 63.31C91.1838 62.9507 90.084 63.3786 89.6 64.31L88.94 65.55C88.3334 66.6471 86.9522 67.0448 85.855 66.4381 85.816 66.4165 85.7777 66.3938 85.74 66.37 84.8821 65.7955 84.4973 64.7301 84.79 63.74L84.96 63.1 90.23 48.75C92.0883 43.6833 91.639 38.0575 89 33.35L83.49 22.79C82.5572 20.9469 80.6657 19.7864 78.6 19.79L72.94 19.79 70.27 17.85C70.1172 17.7366 69.953 17.6394 69.78 17.56 67.2058 16.4798 64.2349 17.0472 62.24 19 61.9608 19.2514 61.7184 19.5409 61.52 19.86L57.39 29.3C57.0414 30.0573 56.9603 30.9106 57.16 31.72 57.4558 32.765 58.2264 33.6098 59.24 34L69.24 38C70.2774 38.4108 71.4488 38.2992 72.39 37.7L73.87 36.7C74.3532 36.388 74.998 36.5268 75.31 37.01 75.622 37.4933 75.4833 38.138 75 38.45L73.51 39.39C72.6326 39.9524 71.6121 40.2509 70.57 40.25 69.8857 40.2464 69.2079 40.1176 68.57 39.87L58.68 36C57.3949 35.5045 56.3303 34.5641 55.68 33.35 54.9205 31.8827 54.869 30.1498 55.54 28.64L59.08 20.64 58.86 20.64C57.7785 20.5567 56.7072 20.3726 55.66 20.09L50.37 18.58C49.3942 18.3008 48.3849 18.1561 47.37 18.15L28.14 18.15C21.6 18.15 15.27 20.84 11.85 24.53 8.09068 28.0068 5.93101 32.8796 5.88 38L5.88 53.92C5.83458 55.4557 5.00886 56.862 3.69 57.65 2.99412 58.0995 2.79438 59.028 3.24387 59.7239 3.51943 60.1505 3.99214 60.4087 4.5 60.41 4.76286 60.4076 5.02084 60.3388 5.25 60.21 7.49107 58.9067 8.87275 56.5125 8.88 53.92L8.88 44.64C9.79673 48.0288 11.5111 51.149 13.88 53.74L13.88 73.83C13.8352 75.9512 15.4122 77.7579 17.52 78 19.7181 78.2209 21.6791 76.6182 21.9 74.4201 21.914 74.2805 21.9207 74.1403 21.92 74L21.92 58.49C32 60.48 40 60.08 48.44 57.4L48.44 73.83C48.3982 75.9393 49.9565 77.7393 52.05 78 54.2486 78.2154 56.2056 76.6077 56.421 74.4091 56.4343 74.2732 56.4407 74.1366 56.44 74L56.44 54.27C57.44 53.82 58.44 53.34 59.44 52.84L59.44 73.84C59.404 75.9488 60.9664 77.7443 63.06 78 65.2586 78.2154 67.2156 76.6077 67.431 74.4091 67.4443 74.2732 67.4506 74.1366 67.45 74L67.45 50.36 67.45 49.36C67.4538 49.0239 67.4907 48.6889 67.56 48.36L68.32 44.81C68.533 44.0037 69.3593 43.5227 70.1656 43.7357 70.2388 43.7551 70.3105 43.7799 70.38 43.81L71.48 44.81C72.7278 45.8853 74.3601 46.4053 76 46.25L78 46.25C80.1235 46.342 81.7777 48.1255 81.71 50.25L80.8 63.8C80.5281 66.5657 82.1064 69.1813 84.68 70.23 85.4236 70.5299 86.2182 70.6827 87.02 70.68 89.3188 70.6787 91.4344 69.4254 92.54 67.41L93.26 66.04C93.7361 65.0433 93.3141 63.8494 92.3174 63.3733 92.2691 63.3502 92.22 63.3291 92.17 63.31Z"
     id="path59" />
</svg>
