<?xml version="1.0" encoding="UTF-8" standalone="no"?>
<svg
   xmlns:dc="http://purl.org/dc/elements/1.1/"
   xmlns:cc="http://creativecommons.org/ns#"
   xmlns:rdf="http://www.w3.org/1999/02/22-rdf-syntax-ns#"
   xmlns:svg="http://www.w3.org/2000/svg"
   xmlns="http://www.w3.org/2000/svg"
   xmlns:sodipodi="http://sodipodi.sourceforge.net/DTD/sodipodi-0.dtd"
   xmlns:inkscape="http://www.inkscape.org/namespaces/inkscape"
   viewBox="0 0 96 96"
   id="Icons_SingleGear"
   overflow="hidden"
   version="1.1"
   sodipodi:docname="settings.svg"
   inkscape:export-filename="C:\Users\Lidia\Documents\Personal\Funpoly\src\wwwroot\image\settings.png"
   inkscape:export-xdpi="511.79999"
   inkscape:export-ydpi="511.79999"
   inkscape:version="1.0.2-2 (e86c870879, 2021-01-15)">
  <metadata
     id="metadata115">
    <rdf:RDF>
      <cc:Work
         rdf:about="">
        <dc:format>image/svg+xml</dc:format>
        <dc:type
           rdf:resource="http://purl.org/dc/dcmitype/StillImage" />
      </cc:Work>
    </rdf:RDF>
  </metadata>
  <defs
     id="defs113" />
  <sodipodi:namedview
     pagecolor="#ffffff"
     bordercolor="#666666"
     borderopacity="1"
     objecttolerance="10"
     gridtolerance="10"
     guidetolerance="10"
     inkscape:pageopacity="0"
     inkscape:pageshadow="2"
     inkscape:window-width="776"
     inkscape:window-height="480"
     id="namedview111"
     showgrid="false"
     inkscape:zoom="8.8541667"
     inkscape:cx="48"
     inkscape:cy="48"
     inkscape:window-x="0"
     inkscape:window-y="0"
     inkscape:window-maximized="0"
     inkscape:current-layer="Icons_SingleGear" />
  <g
     id="g108">
    <path
       d="M48 60C41.4 60 36 54.6 36 48 36 41.4 41.4 36 48 36 54.6 36 60 41.4 60 48 60 54.6 54.6 60 48 60ZM75 40.5C74.4 38.3 73.5 36.2 72.4 34.3L74.9 26.8 69.2 21.1 61.7 23.6C59.7 22.5 57.6 21.6 55.4 21L52 14 44 14 40.5 21C38.3 21.6 36.2 22.5 34.3 23.6L26.8 21.1 21.1 26.8 23.6 34.3C22.5 36.3 21.6 38.4 21 40.6L14 44 14 52 21 55.5C21.6 57.7 22.5 59.8 23.6 61.7L21.1 69.2 26.8 74.9 34.3 72.4C36.3 73.5 38.4 74.4 40.6 75L44.1 82 52.1 82 55.6 75C57.8 74.4 59.9 73.5 61.8 72.4L69.3 74.9 75 69.2 72.5 61.7C73.6 59.7 74.5 57.6 75.1 55.4L82.1 51.9 82.1 43.9 75 40.5Z"
       id="path106" />
  </g>
</svg>
