<?xml version="1.0" encoding="UTF-8" standalone="no"?>
<svg
   xmlns:dc="http://purl.org/dc/elements/1.1/"
   xmlns:cc="http://creativecommons.org/ns#"
   xmlns:rdf="http://www.w3.org/1999/02/22-rdf-syntax-ns#"
   xmlns:svg="http://www.w3.org/2000/svg"
   xmlns="http://www.w3.org/2000/svg"
   xmlns:sodipodi="http://sodipodi.sourceforge.net/DTD/sodipodi-0.dtd"
   xmlns:inkscape="http://www.inkscape.org/namespaces/inkscape"
   viewBox="0 0 96 96"
   id="Icons_Stamp_M"
   overflow="hidden"
   version="1.1"
   sodipodi:docname="stamp-white.svg"
   inkscape:export-filename="C:\Users\Lidia\Documents\Personal\Funpoly\src\wwwroot\image\stamp-white.png"
   inkscape:export-xdpi="511.79999"
   inkscape:export-ydpi="511.79999"
   inkscape:version="1.0.2-2 (e86c870879, 2021-01-15)">
  <metadata
     id="metadata30">
    <rdf:RDF>
      <cc:Work
         rdf:about="">
        <dc:format>image/svg+xml</dc:format>
        <dc:type
           rdf:resource="http://purl.org/dc/dcmitype/StillImage" />
      </cc:Work>
    </rdf:RDF>
  </metadata>
  <defs
     id="defs28" />
  <sodipodi:namedview
     pagecolor="#ffffff"
     bordercolor="#666666"
     borderopacity="1"
     objecttolerance="10"
     gridtolerance="10"
     guidetolerance="10"
     inkscape:pageopacity="0"
     inkscape:pageshadow="2"
     inkscape:window-width="1920"
     inkscape:window-height="1017"
     id="namedview26"
     showgrid="false"
     inkscape:zoom="8.8541667"
     inkscape:cx="48"
     inkscape:cy="48"
     inkscape:window-x="1912"
     inkscape:window-y="-8"
     inkscape:window-maximized="1"
     inkscape:current-layer="Icons_Stamp_M" />
  <path
     d="M83.994 84 74.218 84 74.218 83C74.218 81.405 72.925 80.112 71.33 80.112 69.735 80.112 68.442 81.405 68.442 83L68.442 84 62.554 84 62.554 83C62.554 81.405 61.261 80.112 59.666 80.112 58.071 80.112 56.778 81.405 56.778 83L56.778 84 50.89 84 50.89 83C50.89 81.405 49.597 80.112 48.002 80.112 46.407 80.112 45.114 81.405 45.114 83L45.114 84 39.227 84 39.227 83C39.2567 81.4047 37.9875 80.0874 36.3923 80.0578 34.797 80.0281 33.4797 81.2972 33.45 82.8925 33.4493 82.9283 33.4493 82.9642 33.45 83L33.45 84 27.562 84 27.562 83C27.5917 81.4053 26.323 80.0884 24.7282 80.0588 23.1335 80.0291 21.8167 81.2978 21.787 82.8925 21.7863 82.9283 21.7863 82.9642 21.787 83L21.787 84 12.01 84 12.01 74.222 13.01 74.222C14.6056 74.222 15.899 72.9286 15.899 71.333 15.899 69.7374 14.6056 68.444 13.01 68.444L12.01 68.444 12.01 62.556 13.01 62.556C14.6056 62.556 15.899 61.2626 15.899 59.667 15.899 58.0714 14.6056 56.778 13.01 56.778L12.01 56.778 12.01 50.889 13.01 50.889C14.6056 50.889 15.899 49.5956 15.899 48 15.899 46.4044 14.6056 45.111 13.01 45.111L12.01 45.111 12.01 39.222 13.01 39.222C14.6056 39.222 15.899 37.9286 15.899 36.333 15.899 34.7374 14.6056 33.444 13.01 33.444L12.01 33.444 12.01 27.556 13.01 27.556C14.6056 27.556 15.899 26.2626 15.899 24.667 15.899 23.0714 14.6056 21.778 13.01 21.778L12.01 21.778 12.01 12 21.787 12 21.787 13C21.7573 14.5947 23.026 15.9116 24.6208 15.9412 26.2155 15.9709 27.5323 14.7022 27.562 13.1075 27.5627 13.0717 27.5627 13.0358 27.562 13L27.562 12 33.45 12 33.45 13C33.4203 14.5953 34.6895 15.9126 36.2848 15.9422 37.88 15.9719 39.1973 14.7028 39.227 13.1075 39.2277 13.0717 39.2277 13.0358 39.227 13L39.227 12 45.114 12 45.114 13C45.114 14.595 46.407 15.888 48.002 15.888 49.597 15.888 50.89 14.595 50.89 13L50.89 12 56.778 12 56.778 13C56.778 14.595 58.071 15.888 59.666 15.888 61.261 15.888 62.554 14.595 62.554 13L62.554 12 68.442 12 68.442 13C68.442 14.595 69.735 15.888 71.33 15.888 72.925 15.888 74.218 14.595 74.218 13L74.218 12 83.994 12 83.994 21.778 82.994 21.778C81.3985 21.778 80.105 23.0714 80.105 24.667 80.105 26.2626 81.3985 27.556 82.994 27.556L83.994 27.556 83.994 33.444 82.994 33.444C81.3985 33.444 80.105 34.7374 80.105 36.333 80.105 37.9286 81.3985 39.222 82.994 39.222L83.994 39.222 83.994 45.111 82.994 45.111C81.3985 45.111 80.105 46.4044 80.105 48 80.105 49.5956 81.3985 50.889 82.994 50.889L83.994 50.889 83.994 56.778 82.994 56.778C81.3985 56.778 80.105 58.0714 80.105 59.667 80.105 61.2626 81.3985 62.556 82.994 62.556L83.994 62.556 83.994 68.444 82.994 68.444C81.3985 68.444 80.105 69.7374 80.105 71.333 80.105 72.9286 81.3985 74.222 82.994 74.222L83.994 74.222ZM76.115 82 81.994 82 81.994 76.119C79.3508 75.565 77.6571 72.9731 78.2112 70.3299 78.6094 68.4298 80.0939 66.9453 81.994 66.547L81.994 64.453C79.3508 63.899 77.6571 61.3071 78.2112 58.6639 78.6094 56.7638 80.0939 55.2793 81.994 54.881L81.994 52.786C79.3508 52.232 77.6571 49.6401 78.2112 46.9969 78.6094 45.0968 80.0939 43.6123 81.994 43.214L81.994 41.119C79.3508 40.565 77.6571 37.9731 78.2112 35.3299 78.6094 33.4298 80.0939 31.9453 81.994 31.547L81.994 29.453C79.3508 28.899 77.6571 26.3071 78.2112 23.6639 78.6094 21.7638 80.0939 20.2793 81.994 19.881L81.994 14 76.115 14C75.5637 16.6427 72.9745 18.3381 70.3318 17.7868 68.4288 17.3899 66.942 15.903 66.545 14L64.451 14C63.8997 16.6427 61.3105 18.3381 58.6678 17.7868 56.7648 17.3899 55.278 15.903 54.881 14L52.788 14C52.2354 16.643 49.6448 18.3375 47.0018 17.7848 45.1003 17.3872 43.6146 15.9015 43.217 14L41.124 14C40.5714 16.643 37.9808 18.3375 35.3378 17.7848 33.4363 17.3872 31.9506 15.9015 31.553 14L29.459 14C28.9064 16.6424 26.3164 18.3365 23.6739 17.7839 21.7729 17.3864 20.2876 15.9011 19.89 14L14.01 14 14.01 19.881C16.6532 20.435 18.3469 23.0269 17.7929 25.6701 17.3946 27.5702 15.9101 29.0547 14.01 29.453L14.01 31.547C16.6532 32.101 18.3469 34.6929 17.7929 37.3361 17.3946 39.2362 15.9101 40.7207 14.01 41.119L14.01 43.214C16.6532 43.768 18.3469 46.3599 17.7929 49.0031 17.3946 50.9032 15.9101 52.3877 14.01 52.786L14.01 54.881C16.6532 55.435 18.3469 58.0269 17.7929 60.6701 17.3946 62.5702 15.9101 64.0547 14.01 64.453L14.01 66.547C16.6532 67.101 18.3469 69.6929 17.7929 72.3361 17.3946 74.2362 15.9101 75.7207 14.01 76.119L14.01 82 19.89 82C20.4426 79.3576 23.0326 77.6635 25.6751 78.216 27.5761 78.6136 29.0614 80.0989 29.459 82L31.553 82C32.1056 79.357 34.6962 77.6625 37.3392 78.2152 39.2407 78.6128 40.7264 80.0985 41.124 82L43.217 82C43.7696 79.357 46.3602 77.6625 49.0032 78.2152 50.9047 78.6128 52.3904 80.0985 52.788 82L54.881 82C55.4323 79.3573 58.0215 77.6619 60.6642 78.2132 62.5672 78.6101 64.054 80.097 64.451 82L66.545 82C67.0963 79.3573 69.6855 77.6619 72.3282 78.2132 74.2311 78.6101 75.718 80.097 76.115 82Z"
     id="path21" />
  <path
     d="M75 75 21 75 21 21 75 21ZM23 73 73 73 73 23 23 23Z"
     id="path23" />
</svg>
