<?xml version="1.0" encoding="UTF-8" standalone="no"?>
<svg
   xmlns:dc="http://purl.org/dc/elements/1.1/"
   xmlns:cc="http://creativecommons.org/ns#"
   xmlns:rdf="http://www.w3.org/1999/02/22-rdf-syntax-ns#"
   xmlns:svg="http://www.w3.org/2000/svg"
   xmlns="http://www.w3.org/2000/svg"
   xmlns:sodipodi="http://sodipodi.sourceforge.net/DTD/sodipodi-0.dtd"
   xmlns:inkscape="http://www.inkscape.org/namespaces/inkscape"
   viewBox="0 0 96 96"
   id="Icons_ToyTrain"
   overflow="hidden"
   version="1.1"
   sodipodi:docname="train.svg"
   inkscape:export-filename="C:\Users\Lidia\Documents\Personal\Funpoly\src\wwwroot\image\train.png"
   inkscape:export-xdpi="511.79999"
   inkscape:export-ydpi="511.79999"
   inkscape:version="1.0.2-2 (e86c870879, 2021-01-15)">
  <metadata
     id="metadata60">
    <rdf:RDF>
      <cc:Work
         rdf:about="">
        <dc:format>image/svg+xml</dc:format>
        <dc:type
           rdf:resource="http://purl.org/dc/dcmitype/StillImage" />
      </cc:Work>
    </rdf:RDF>
  </metadata>
  <defs
     id="defs58" />
  <sodipodi:namedview
     pagecolor="#ffffff"
     bordercolor="#666666"
     borderopacity="1"
     objecttolerance="10"
     gridtolerance="10"
     guidetolerance="10"
     inkscape:pageopacity="0"
     inkscape:pageshadow="2"
     inkscape:window-width="1920"
     inkscape:window-height="1017"
     id="namedview56"
     showgrid="false"
     inkscape:zoom="8.8541667"
     inkscape:cx="48"
     inkscape:cy="48"
     inkscape:window-x="1912"
     inkscape:window-y="-8"
     inkscape:window-maximized="1"
     inkscape:current-layer="Icons_ToyTrain" />
  <circle
     cx="29.004"
     cy="72.348"
     r="7.652"
     id="circle49" />
  <path
     d="M71.979 26.867C71.746 22.329 70.4 18.394 68.438 16L57.546 16C55.588 18.394 54.237 22.329 54 26.867L58.554 31.716 58.554 39 47 39 47 29 50 29 50 25C50 22.7909 48.2091 21 46 21L14 21C11.7909 21 10 22.7909 10 25L10 29 13 29 13 44C10.7909 44 9 45.7909 9 48L9 67C9 69.2091 10.7909 71 13 71L17.433 71C18.1713 64.6117 23.9486 60.0315 30.3369 60.7699 35.7087 61.3907 39.9461 65.6282 40.567 71L52.437 71C53.1218 64.6058 58.8604 59.9773 65.2547 60.6621 71.6489 61.3469 76.2774 67.0855 75.5926 73.4798 75.574 73.6537 75.5514 73.8271 75.525 74L86 74C87.1046 74.0004 88.0003 73.1053 88.0008 72.0008 88.0009 71.6784 87.9231 71.3608 87.774 71.075L80.751 57.613C81.5737 55.656 81.9982 53.5548 82 51.432 82.0368 46.5816 79.8203 41.9889 76 39L67.45 39 67.45 31.716ZM38 44 22 44 22 33 38 33Z"
     id="path51" />
  <circle
     cx="64.004"
     cy="72.348"
     r="7.652"
     id="circle53" />
</svg>
