<?xml version="1.0" encoding="UTF-8" standalone="no"?>
<svg
   xmlns:dc="http://purl.org/dc/elements/1.1/"
   xmlns:cc="http://creativecommons.org/ns#"
   xmlns:rdf="http://www.w3.org/1999/02/22-rdf-syntax-ns#"
   xmlns:svg="http://www.w3.org/2000/svg"
   xmlns="http://www.w3.org/2000/svg"
   xmlns:sodipodi="http://sodipodi.sourceforge.net/DTD/sodipodi-0.dtd"
   xmlns:inkscape="http://www.inkscape.org/namespaces/inkscape"
   viewBox="0 0 96 96"
   id="Icons_Travel"
   overflow="hidden"
   version="1.1"
   sodipodi:docname="travel.svg"
   inkscape:export-filename="C:\Users\Lidia\Documents\Personal\Funpoly\src\wwwroot\image\travel.png"
   inkscape:export-xdpi="511.79999"
   inkscape:export-ydpi="511.79999"
   inkscape:version="1.0.2-2 (e86c870879, 2021-01-15)">
  <metadata
     id="metadata93">
    <rdf:RDF>
      <cc:Work
         rdf:about="">
        <dc:format>image/svg+xml</dc:format>
        <dc:type
           rdf:resource="http://purl.org/dc/dcmitype/StillImage" />
      </cc:Work>
    </rdf:RDF>
  </metadata>
  <defs
     id="defs91" />
  <sodipodi:namedview
     pagecolor="#ffffff"
     bordercolor="#666666"
     borderopacity="1"
     objecttolerance="10"
     gridtolerance="10"
     guidetolerance="10"
     inkscape:pageopacity="0"
     inkscape:pageshadow="2"
     inkscape:window-width="776"
     inkscape:window-height="480"
     id="namedview89"
     showgrid="false"
     inkscape:zoom="8.8541667"
     inkscape:cx="48"
     inkscape:cy="48"
     inkscape:window-x="0"
     inkscape:window-y="0"
     inkscape:window-maximized="0"
     inkscape:current-layer="Icons_Travel" />
  <path
     d="M61.745 68.272C58.668 72.0707 54.586 74.9289 49.964 76.521 52.6884 73.6189 54.6938 70.1181 55.819 66.3L58.568 66.3 58.759 63.55 56.6 63.55C57.4059 60.1905 57.8484 56.7541 57.92 53.3L59.47 53.3 59.661 50.55 57.92 50.55C57.8747 48.7011 57.7288 46.856 57.483 45.023L54.833 46.123C55.004 47.558 55.133 49.03 55.17 50.554L48.746 50.554 47.889 53.304 55.17 53.304C55.0937 56.7639 54.6179 60.2034 53.752 63.554L42.939 63.554 42.939 59.911 40.189 61.178 40.189 63.546 29.376 63.546C29.068 62.384 28.822 61.154 28.608 59.893 27.7027 60.3863 26.852 60.874 26.056 61.356 26.199 62.1 26.356 62.834 26.528 63.546L22.728 63.546C20.4843 65.0386 18.5505 66.9511 17.033 69.178 26.5588 82.729 45.2662 85.9922 58.8172 76.4664 62.84 73.6386 66.1058 69.865 68.327 65.478ZM19.913 66.3 27.313 66.3C28.4373 70.1199 30.4432 73.6223 33.169 76.525 27.7482 74.6633 23.0902 71.0704 19.913 66.3ZM40.189 77.421C35.989 76.664 32.407 72.465 30.22 66.296L40.189 66.296ZM42.939 77.421 42.939 66.3 52.908 66.3C50.721 72.465 47.137 76.664 42.939 77.421Z"
     id="path80" />
  <path
     d="M49.866 27.116C48.7555 25.8781 47.5538 24.7252 46.271 23.667L44.425 22.06C43.483 21.971 42.525 21.921 41.564 21.921 25.5621 21.9213 12.3772 34.481 11.6 50.464 12.98 49.2013 14.477 47.956 16.091 46.728 16.5469 44.4966 17.2957 42.3352 18.318 40.3L25.563 40.3 26.447 37.55 19.913 37.55C23.0887 32.779 27.7452 29.1848 33.165 27.321 31.4673 29.0652 30.0701 31.0784 29.03 33.279L33.42 31.256C35.337 28.604 37.649 26.879 40.189 26.421L40.189 33.461 42.939 34.779 42.939 26.421C45.839 26.945 48.451 29.121 50.508 32.445L53.07 31.385C52.1763 29.8392 51.1006 28.406 49.866 27.116Z"
     id="path82" />
  <path
     d="M63.448 39.3 61.664 65.015 68.45 62.131 74.811 34.443 87.582 29.074C90.556 27.81 93.796 24.633 92.824 22.345 92.299 21.11 90.64 20.582 88.761 20.576 88.718 20.576 88.674 20.576 88.63 20.576 88.384 20.576 88.13 20.595 87.881 20.615 86.6901 20.7113 85.5213 20.9913 84.416 21.445L71.645 26.818 71.614 26.8 71.57 26.818 47.517 12 40.7 14.9 60.207 31.679 43.744 38.491 43.709 38.474 43.669 38.491 34.46 34.079 30.878 35.73 34.378 39.357 34.327 39.381 39.607 44.846 39.882 51.478 39.955 51.449 40.219 57.825 43.766 56.191 46.906 46.116 63.373 39.3 63.373 39.332Z"
     id="path84" />
  <path
     d="M13.027 72.217C13.027 65.892 21.661 58.988 36.932 52.662L36.661 46.11 31.494 40.762C11.194 50.962 0.859 64.124 4.058 74.162 5.698 79.305 10.327 82.387 23.951 80.37 23.951 80.37 26.208 79.956 26.651 79.275 17.219 79.278 13.027 76.453 13.027 72.217Z"
     id="path86" />
</svg>
