<?xml version="1.0" encoding="UTF-8" standalone="no"?>
<svg
   xmlns:dc="http://purl.org/dc/elements/1.1/"
   xmlns:cc="http://creativecommons.org/ns#"
   xmlns:rdf="http://www.w3.org/1999/02/22-rdf-syntax-ns#"
   xmlns:svg="http://www.w3.org/2000/svg"
   xmlns="http://www.w3.org/2000/svg"
   xmlns:sodipodi="http://sodipodi.sourceforge.net/DTD/sodipodi-0.dtd"
   xmlns:inkscape="http://www.inkscape.org/namespaces/inkscape"
   viewBox="0 0 96 96"
   id="Icons_Refresh_RTL"
   overflow="hidden"
   version="1.1"
   sodipodi:docname="turn.svg"
   inkscape:export-filename="C:\Users\Lidia\Documents\Personal\Funpoly\src\wwwroot\image\turn.png"
   inkscape:export-xdpi="511.79999"
   inkscape:export-ydpi="511.79999"
   inkscape:version="1.0.2-2 (e86c870879, 2021-01-15)">
  <metadata
     id="metadata54">
    <rdf:RDF>
      <cc:Work
         rdf:about="">
        <dc:format>image/svg+xml</dc:format>
        <dc:type
           rdf:resource="http://purl.org/dc/dcmitype/StillImage" />
      </cc:Work>
    </rdf:RDF>
  </metadata>
  <defs
     id="defs52" />
  <sodipodi:namedview
     pagecolor="#ffffff"
     bordercolor="#666666"
     borderopacity="1"
     objecttolerance="10"
     gridtolerance="10"
     guidetolerance="10"
     inkscape:pageopacity="0"
     inkscape:pageshadow="2"
     inkscape:window-width="1920"
     inkscape:window-height="1017"
     id="namedview50"
     showgrid="false"
     inkscape:zoom="8.8541667"
     inkscape:cx="48"
     inkscape:cy="48"
     inkscape:window-x="1912"
     inkscape:window-y="-8"
     inkscape:window-maximized="1"
     inkscape:current-layer="Icons_Refresh_RTL" />
  <path
     d="M10 34 10 13 16.7 19.7C23.4 13.7 32.3 10 42 10 63 10 80 27 80 48 80 69 63 86 42 86 31.5 86 22 81.7 15.1 74.9L23.6 66.4C28.3 71.1 34.8 74 42 74 56.3 74 68 62.3 68 48 68 33.7 56.3 22 42 22 35.6 22 29.7 24.3 25.2 28.2L31 34 10 34Z"
     id="path47" />
</svg>
